<?xml version="1.0" encoding="utf-8"?>
<!-- Generator: Adobe Illustrator 25.4.1, SVG Export Plug-In . SVG Version: 6.00 Build 0)  -->
<svg version="1.1" id="Laag_1" xmlns="http://www.w3.org/2000/svg" xmlns:xlink="http://www.w3.org/1999/xlink" x="0px" y="0px"
	 viewBox="0 0 339.52 96" style="enable-background:new 0 0 339.52 96;" xml:space="preserve">
<style type="text/css">
	.st0{fill:#FFFFFF;}
	.st1{fill:none;}
</style>
<g>
	<g>
		<path class="st0" d="M96.51,34.46c-19.06-11.61-44.68-17.64-64.5-7.39l33.27,17.54C53.73,44.7,42.08,46.42,32,49.23l40.73,10.32
			l23.77-10.32c-5.67-2.02-11.9-3.32-18.36-4.01L96.51,34.46z"/>
		<path class="st0" d="M32.01,71.38l40.89-1.93L96.51,64C77.19,59.86,43.2,68.24,32.01,71.38z"/>
	</g>
	<g>
		<path class="st0" d="M111.3,42.73h4.85v8.68h0.05c1.05-1.53,2.59-2.52,4.69-2.52c3.82,0,5.36,2.83,5.36,5.9v9.21h-4.85v-7.14
			c0-2.78-0.92-3.71-2.24-3.71c-1.99,0-3.02,1.45-3.02,4.62v6.24h-4.85V42.73z"/>
		<path class="st0" d="M138.58,63.99c-0.03-0.8-0.11-1.56-0.11-2.32h-0.05c-1.1,1.84-2.45,2.66-4.44,2.66
			c-2.77,0-5.25-1.45-5.25-4.65c0-4.51,4.66-5.05,7.24-5.05c0.78,0,1.64,0.08,2.26,0.2c-0.03-2.01-1.45-2.55-3.2-2.55
			c-1.56,0-3.12,0.31-4.47,1.1l-0.08-3.46c1.72-0.74,3.53-1.05,5.6-1.05c3.58,0,6.68,1.62,6.68,6.12v5.5c0,1.16,0.05,2.32,0.27,3.49
			H138.58z M135.24,60.93c1.83,0,2.99-1.76,2.99-3.49c-0.62-0.03-1.32-0.09-2.05-0.09c-1.64,0-2.94,0.54-2.94,1.96
			C133.25,60.33,134.11,60.93,135.24,60.93z"/>
		<path class="st0" d="M145.72,59.91l6.41-6.94h-6.27v-3.74h11.82v4.08l-6.41,6.95h6.52v3.74h-12.07V59.91z"/>
		<path class="st0" d="M164.49,58.09c0.27,2.04,1.75,2.83,4.12,2.83c1.32,0,2.83-0.31,4.28-1.13v3.6c-1.56,0.65-3.34,0.94-5.15,0.94
			c-4.63,0-8.16-2.86-8.16-7.74c0-4.88,3.15-7.71,7.52-7.71c5.2,0,7.08,3.88,7.08,8.28v0.94H164.49z M169.82,55.2
			c0-1.7-0.75-3.09-2.69-3.09c-1.75,0-2.59,1.39-2.69,3.09H169.82z"/>
		<path class="st0" d="M176.71,49.22h4.42v2.72h0.06c0.97-2.13,2.91-3.06,5.12-3.06c3.82,0,5.36,2.83,5.36,5.9v9.21h-4.85v-7.14
			c0-2.78-0.92-3.71-2.24-3.71c-1.99,0-3.02,1.45-3.02,4.62v6.24h-4.85V49.22z"/>
		<path class="st0" d="M194.83,42.73h4.87v8.39h0.06c1.24-1.64,2.88-2.24,4.82-2.24c3.88,0,6.01,3.88,6.01,7.46
			c0,4.36-2.23,7.99-6.41,7.99c-2.24,0-4.2-1.33-4.82-2.98h-0.06v2.64h-4.47V42.73z M202.64,52.79c-1.78,0-2.96,1.64-2.96,3.86
			c0,2.15,1.35,3.77,2.96,3.77c1.83,0,2.93-1.62,2.93-3.97C205.58,54.5,204.53,52.79,202.64,52.79z"/>
		<path class="st0" d="M217.29,58.09c0.27,2.04,1.75,2.83,4.12,2.83c1.32,0,2.83-0.31,4.28-1.13v3.6c-1.56,0.65-3.34,0.94-5.15,0.94
			c-4.63,0-8.16-2.86-8.16-7.74c0-4.88,3.15-7.71,7.51-7.71c5.2,0,7.08,3.88,7.08,8.28v0.94H217.29z M222.62,55.2
			c0-1.7-0.75-3.09-2.69-3.09c-1.75,0-2.58,1.39-2.69,3.09H222.62z"/>
		<path class="st0" d="M239.53,53.3c-0.54-0.17-1.08-0.17-1.64-0.17c-2.26,0-3.53,1.73-3.53,4.62v6.24h-4.85V49.22h4.42v2.72h0.06
			c0.83-1.87,2.04-3.06,4.15-3.06c0.57,0,1.16,0.09,1.65,0.17L239.53,53.3z"/>
		<path class="st0" d="M256.07,62.26c0,6.07-2.8,8.02-8.46,8.02c-2.31,0-4.23-0.51-5.36-0.93l0.24-4.03
			c1.48,0.77,2.72,1.22,4.74,1.22c2.8,0,4.31-1.39,4.31-4.28v-0.79h-0.06c-1.16,1.73-2.77,2.52-4.71,2.52
			c-3.85,0-6.25-3.06-6.25-7.43c0-4.39,1.97-7.68,6.33-7.68c2.07,0,3.74,1.19,4.77,3h0.05v-2.66h4.39V62.26z M248.28,60.08
			c1.72,0,3.1-1.53,3.1-3.8c0-1.64-0.92-3.49-3.1-3.49c-1.8,0-2.75,1.67-2.75,3.68C245.53,58.77,246.83,60.08,248.28,60.08z"/>
	</g>
	<path class="st0" d="M266.39,67V45.45h2.56V67H266.39z"/>
	<g>
		<path class="st0" d="M283.65,51.74v12.19h-2.88V51.74h-3.86v-2.57h10.59v2.57H283.65z"/>
		<path class="st0" d="M296.03,63.94h-6.18V49.17h5.93c2.88,0,4.56,1.62,4.56,4.15c0,1.64-1.08,2.7-1.83,3.05
			c0.89,0.41,2.03,1.35,2.03,3.32C300.55,62.44,298.66,63.94,296.03,63.94z M295.55,51.74h-2.82v3.4h2.82c1.23,0,1.91-0.68,1.91-1.7
			C297.46,52.43,296.78,51.74,295.55,51.74z M295.74,57.74h-3.01v3.63h3.01c1.31,0,1.93-0.83,1.93-1.83
			C297.67,58.55,297.05,57.74,295.74,57.74z"/>
		<path class="st0" d="M304.64,63.94V49.17h2.88v14.76H304.64z"/>
	</g>
	<rect class="st1" width="339.52" height="96"/>
</g>
</svg>
