<?xml version="1.0" encoding="utf-8"?>
<!-- Generator: Adobe Illustrator 25.4.1, SVG Export Plug-In . SVG Version: 6.00 Build 0)  -->
<svg version="1.1" id="Laag_1" xmlns="http://www.w3.org/2000/svg" xmlns:xlink="http://www.w3.org/1999/xlink" x="0px" y="0px"
	 viewBox="0 0 361.1 96" style="enable-background:new 0 0 361.1 96;" xml:space="preserve">
<style type="text/css">
	.st0{fill:#FFFFFF;}
	.st1{fill:none;}
</style>
<g>
	<g>
		<path class="st0" d="M96.51,34.46c-19.06-11.61-44.68-17.64-64.5-7.39l33.27,17.54C53.73,44.7,42.08,46.42,32,49.23l40.73,10.32
			l23.77-10.32c-5.67-2.02-11.9-3.32-18.36-4.01L96.51,34.46z"/>
		<path class="st0" d="M32.01,71.38l40.89-1.93L96.51,64C77.19,59.86,43.2,68.24,32.01,71.38z"/>
	</g>
	<g>
		<path class="st0" d="M111.44,49.25h4.42v2.72h0.05c0.97-2.13,2.91-3.06,5.12-3.06c3.82,0,5.36,2.83,5.36,5.9v9.21h-4.85v-7.14
			c0-2.78-0.92-3.71-2.24-3.71c-1.99,0-3.02,1.45-3.02,4.62v6.24h-4.85V49.25z"/>
		<path class="st0" d="M129.96,49.25h4.85v14.77h-4.85V49.25z M134.81,46.84h-4.85V43.1h4.85V46.84z"/>
		<path class="st0" d="M149.11,53.47c-0.89-0.57-1.78-0.82-2.93-0.82c-2.1,0-3.72,1.53-3.72,4.08c0,2.35,1.88,3.88,3.99,3.88
			c1.1,0,2.21-0.25,3.02-0.71l0.11,3.8c-1.21,0.42-2.67,0.65-3.96,0.65c-4.63,0-8.16-2.83-8.16-7.71c0-4.91,3.53-7.74,8.16-7.74
			c1.45,0,2.75,0.25,3.85,0.82L149.11,53.47z"/>
		<path class="st0" d="M150.92,56.65c0-4.91,3.53-7.74,8.16-7.74c4.63,0,8.16,2.83,8.16,7.74c0,4.88-3.53,7.71-8.16,7.71
			C154.44,64.36,150.92,61.53,150.92,56.65z M162.23,56.65c0-2.21-0.92-4.17-3.15-4.17c-2.23,0-3.15,1.96-3.15,4.17
			c0,2.18,0.92,4.14,3.15,4.14C161.31,60.79,162.23,58.83,162.23,56.65z"/>
		<path class="st0" d="M189.66,64.02h-4.47v-2.64h-0.06c-0.62,1.65-2.58,2.98-4.82,2.98c-4.17,0-6.41-3.63-6.41-7.99
			c0-3.63,2.13-7.46,6.01-7.46c1.94,0,3.58,0.54,4.82,2.24h0.06v-8.39h4.87V64.02z M181.85,60.45c1.62,0,2.96-1.62,2.96-3.77
			c0-2.24-1.18-3.86-2.96-3.86c-1.89,0-2.93,1.7-2.93,3.66C178.92,58.83,180.02,60.45,181.85,60.45z"/>
		<path class="st0" d="M196.8,58.12c0.27,2.04,1.75,2.83,4.12,2.83c1.32,0,2.83-0.31,4.28-1.13v3.6c-1.56,0.65-3.34,0.94-5.15,0.94
			c-4.63,0-8.16-2.86-8.16-7.74s3.15-7.71,7.52-7.71c5.2,0,7.08,3.88,7.08,8.28v0.93H196.8z M202.13,55.23
			c0-1.7-0.75-3.09-2.69-3.09c-1.75,0-2.58,1.39-2.69,3.09H202.13z"/>
		<path class="st0" d="M213.91,42.76h4.88v8.39h0.06c1.24-1.64,2.88-2.24,4.82-2.24c3.88,0,6.01,3.88,6.01,7.46
			c0,4.36-2.23,7.99-6.41,7.99c-2.24,0-4.2-1.33-4.82-2.98h-0.05v2.64h-4.47V42.76z M221.73,52.82c-1.78,0-2.96,1.64-2.96,3.86
			c0,2.15,1.35,3.77,2.96,3.77c1.83,0,2.93-1.62,2.93-3.97C224.66,54.52,223.61,52.82,221.73,52.82z"/>
		<path class="st0" d="M231.34,56.65c0-4.91,3.53-7.74,8.16-7.74c4.63,0,8.16,2.83,8.16,7.74c0,4.88-3.53,7.71-8.16,7.71
			C234.87,64.36,231.34,61.53,231.34,56.65z M242.65,56.65c0-2.21-0.92-4.17-3.15-4.17c-2.24,0-3.15,1.96-3.15,4.17
			c0,2.18,0.92,4.14,3.15,4.14C241.73,60.79,242.65,58.83,242.65,56.65z"/>
		<path class="st0" d="M250,49.25h4.41v2.72h0.06c0.97-2.13,2.91-3.06,5.12-3.06c3.82,0,5.36,2.83,5.36,5.9v9.21h-4.85v-7.14
			c0-2.78-0.92-3.71-2.24-3.71c-1.99,0-3.02,1.45-3.02,4.62v6.24H250V49.25z"/>
		<path class="st0" d="M266.72,49.25h2.86v-3.31l4.77-1.56v4.87h3.4v3.57h-3.4v5.44c0,1.78,0.41,2.69,1.94,2.69
			c0.48,0,1-0.11,1.48-0.2l0.16,3.32c-0.92,0.11-1.83,0.28-3.05,0.28c-4.33,0-5.39-2.01-5.39-5.53v-6.01h-2.78V49.25z"/>
	</g>
	<path class="st0" d="M287.98,67.08V45.52h2.56v21.55H287.98z"/>
	<g>
		<path class="st0" d="M305.23,51.82v12.19h-2.88V51.82h-3.86v-2.57h10.59v2.57H305.23z"/>
		<path class="st0" d="M317.61,64.01h-6.18V49.25h5.93c2.88,0,4.56,1.62,4.56,4.15c0,1.64-1.08,2.7-1.83,3.05
			c0.89,0.41,2.03,1.35,2.03,3.32C322.13,62.52,320.25,64.01,317.61,64.01z M317.14,51.82h-2.82v3.4h2.82c1.23,0,1.91-0.68,1.91-1.7
			C319.04,52.51,318.36,51.82,317.14,51.82z M317.32,57.81h-3.01v3.63h3.01c1.31,0,1.93-0.83,1.93-1.83
			C319.25,58.62,318.63,57.81,317.32,57.81z"/>
		<path class="st0" d="M326.22,64.01V49.25h2.88v14.76H326.22z"/>
	</g>
	<rect class="st1" width="361.1" height="96"/>
</g>
</svg>
